<?xml version="1.0" standalone="no"?>
<!DOCTYPE svg PUBLIC "-//W3C//DTD SVG 20010904//EN"
 "http://www.w3.org/TR/2001/REC-SVG-20010904/DTD/svg10.dtd">
<svg version="1.0" xmlns="http://www.w3.org/2000/svg"
 width="1259.000000pt" height="1447.000000pt" viewBox="0 0 1259.000000 1447.000000"
 preserveAspectRatio="xMidYMid meet">
<metadata>
Created by potrace 1.15, written by Peter Selinger 2001-2017
</metadata>
<g transform="translate(0.000000,1447.000000) scale(0.100000,-0.100000)"
fill="#000000" stroke="none">
<path d="M5310 12080 c-94 -5 -145 -19 -160 -40 -3 -4 -57 -22 -120 -40 -378
-104 -610 -214 -825 -390 -97 -80 -250 -240 -323 -338 -287 -387 -473 -931
-537 -1572 -22 -215 -30 -630 -16 -823 10 -139 14 -162 34 -190 13 -18 29 -44
36 -58 7 -15 33 -50 57 -77 24 -28 44 -53 44 -57 0 -4 14 -23 30 -42 17 -18
30 -39 30 -46 0 -8 13 -26 30 -42 17 -16 30 -37 30 -46 0 -11 23 -31 58 -53
55 -33 58 -37 86 -118 17 -46 42 -109 56 -142 l27 -58 18 43 c16 42 18 43 28
22 15 -33 23 -29 43 23 16 42 18 44 26 24 10 -27 29 -22 47 14 11 23 18 27 42
24 23 -4 30 0 40 24 13 33 29 36 36 8 8 -30 17 -24 33 17 l13 38 13 -37 c23
-66 85 -182 152 -283 125 -189 312 -344 506 -421 137 -54 137 -48 1 19 -153
75 -263 154 -361 259 -81 88 -143 193 -124 211 9 9 23 -1 59 -43 202 -238 341
-341 551 -408 97 -31 250 -62 306 -62 30 0 518 174 619 221 45 21 65 23 215
24 l165 1 323 112 c286 99 367 124 351 107 -3 -2 -151 -55 -329 -116 -179 -61
-327 -113 -329 -115 -3 -3 5 -11 17 -20 31 -21 27 -44 -8 -57 l-30 -12 7 -60
c11 -84 7 -369 -7 -488 -29 -250 -77 -305 -348 -395 -170 -57 -293 -76 -513
-76 -127 -1 -195 -5 -193 -11 10 -26 488 -27 623 -1 100 18 266 68 316 94 22
12 67 16 175 18 80 2 159 5 175 7 17 3 50 8 75 12 25 3 56 8 70 10 14 2 32 6
40 8 48 13 68 17 94 22 16 2 34 9 39 14 12 12 23 251 12 251 -5 0 -145 -70
-312 -155 -167 -85 -306 -155 -309 -155 -3 0 14 16 37 36 24 20 166 97 315
172 l271 135 6 171 c4 94 7 237 7 317 0 81 5 171 10 200 21 112 86 193 164
206 33 5 38 4 35 -12 -2 -10 -31 -34 -64 -54 -32 -20 -69 -51 -82 -69 -46 -69
-40 125 -73 -2397 -10 -808 -22 -1602 -25 -1764 l-6 -294 47 -44 c29 -26 98
-69 178 -109 72 -36 120 -62 106 -58 -44 12 -184 80 -246 118 -41 26 -50 29
-29 11 46 -39 145 -93 273 -147 141 -60 240 -88 310 -88 46 0 60 5 89 30 18
16 40 30 48 30 8 0 15 5 15 10 0 6 7 10 15 10 8 0 15 4 15 8 0 9 62 47 73 44
4 -1 7 2 7 8 0 5 7 10 15 10 8 0 15 4 15 8 0 9 62 47 73 44 4 -1 7 2 7 8 0 5
5 10 10 10 6 0 20 8 31 19 11 10 36 27 57 37 20 11 45 26 55 35 10 9 35 25 55
35 20 11 39 22 40 27 2 4 8 7 13 7 6 0 8 -4 5 -9 -3 -5 7 -11 22 -14 15 -3 56
-12 91 -20 123 -29 212 -9 243 55 31 63 37 116 69 573 17 253 33 462 34 464 2
1 92 -24 201 -58 108 -34 212 -61 230 -61 22 0 41 8 56 24 13 12 140 92 283
176 143 85 293 173 333 197 41 24 71 39 68 34 -3 -5 -32 -24 -63 -41 -31 -18
-63 -38 -71 -46 -7 -8 -18 -14 -23 -14 -5 0 -19 -8 -30 -18 -19 -18 -18 -19
63 -41 131 -36 208 -42 263 -21 17 6 30 10 31 8 1 -8 64 71 64 80 0 6 6 15 13
19 30 19 63 146 86 328 18 150 20 227 5 307 -4 24 -7 46 -6 51 1 4 -1 7 -5 7
-5 0 -9 11 -9 24 -2 27 -70 136 -86 136 -5 0 -16 6 -23 13 -35 30 -45 37 -58
37 -7 0 -17 4 -22 9 -6 5 -273 69 -593 143 -479 109 -586 136 -594 152 -11 20
40 816 53 838 5 7 86 -4 265 -36 143 -25 269 -46 281 -46 12 0 37 7 55 15 44
20 751 226 756 220 3 -2 -1 -7 -9 -9 -17 -6 -220 -68 -354 -107 -55 -17 -107
-33 -115 -36 -8 -3 82 -23 200 -45 211 -38 343 -49 364 -28 5 5 18 10 27 10
21 0 129 104 129 124 0 9 5 16 10 16 6 0 10 11 10 25 0 14 3 25 8 25 9 0 32
72 32 99 0 11 4 21 8 23 10 4 61 422 53 425 -3 2 -5 33 -4 70 2 95 -27 195
-80 275 -22 33 -101 88 -128 88 -10 0 -27 5 -37 10 -23 14 -2105 239 -2165
234 -26 -2 -61 -10 -77 -19 -16 -8 -35 -15 -43 -15 -7 0 -24 -12 -38 -26 -22
-24 -22 -26 -4 -20 61 18 256 1 1210 -108 915 -104 1105 -129 1093 -141 -10
-10 -771 -115 -793 -109 -14 3 -535 70 -1157 149 -623 79 -1123 143 -1110 144
27 1 20 21 -8 21 -10 0 -20 5 -22 11 -6 18 -141 13 -177 -6 -17 -8 -31 -13
-31 -10 0 3 -13 -1 -30 -10 -16 -8 -33 -16 -37 -17 -5 0 -25 -12 -45 -25 -21
-13 -38 -21 -38 -18 0 3 -15 -2 -32 -12 -18 -9 -37 -18 -43 -19 -21 -5 -81
-27 -99 -36 -11 -6 -30 -12 -43 -14 -12 -2 -33 -6 -45 -9 -85 -18 -120 -24
-171 -29 -32 -4 -61 -7 -65 -8 -4 -1 -52 1 -107 5 -115 9 -213 26 -221 38 -3
5 -14 9 -24 9 -35 0 -228 77 -250 100 -3 3 -25 18 -50 35 -72 47 -196 179
-242 258 -73 125 -116 242 -156 422 -42 185 -52 291 -52 525 -1 279 21 517 61
667 10 40 19 81 19 90 0 19 54 191 88 278 28 73 82 182 101 202 10 10 36 45
58 79 57 83 174 190 268 243 111 64 213 91 365 99 l124 7 -89 66 c-50 37 -114
81 -144 99 -48 28 -59 30 -107 24 -43 -5 -118 6 -404 62 -366 72 -374 75 -235
93 l70 8 -85 2 c-109 2 -128 13 -64 35 66 23 303 33 404 17 210 -33 475 -165
695 -346 44 -36 103 -81 131 -99 37 -26 53 -44 63 -73 l13 -39 347 -45 c190
-24 332 -45 314 -47 -17 -2 -100 6 -184 17 -83 12 -157 21 -163 21 -6 0 7 -12
29 -27 22 -14 81 -59 131 -100 51 -40 95 -73 98 -73 4 0 19 -9 34 -20 15 -11
52 -22 83 -26 177 -20 309 125 335 365 4 36 11 77 16 90 5 14 11 107 13 208 4
157 0 224 -19 338 -5 30 -17 58 -33 77 -8 9 -12 21 -9 26 3 5 -8 22 -24 37
-17 16 -30 34 -30 41 0 7 -4 14 -9 16 -5 2 -36 27 -70 57 -35 30 -72 60 -84
66 -12 6 -47 25 -78 43 -207 115 -538 208 -774 217 l-120 5 291 -99 c296 -101
442 -164 550 -239 73 -51 94 -68 94 -74 0 -3 -151 44 -336 104 -271 88 -345
116 -381 144 -64 49 -195 124 -283 163 -41 18 -87 39 -102 47 -42 22 -178 61
-293 84 -86 16 -344 44 -364 38 -3 0 -53 -4 -111 -8z m3835 -6421 c680 -158
640 -148 629 -159 -15 -15 -727 -350 -743 -350 -25 -1 -1371 354 -1371 361 0
3 181 72 403 152 340 123 408 145 442 141 22 -3 310 -68 640 -145z"/>
</g>
</svg>
